<svg width="220" height="72" viewBox="0 0 220 72" fill="none" xmlns="http://www.w3.org/2000/svg">
  <rect width="220" height="72" rx="12" fill="white"/>
  <path d="M36 56C24 48 18 36 18 24C18 16.268 24.268 10 32 10C39.732 10 46 16.268 46 24C46 36 40 48 28 56C30.5 57.6 33.7 58.6 36 56Z" fill="#1E3A5F"/>
  <path d="M32 8L35.2 12.8L40.9 13.8L37.1 18.1L38 23.9L32 21.3L26 23.9L26.9 18.1L23.1 13.8L28.8 12.8L32 8Z" fill="#D4AF37"/>
  <text x="58" y="34" fill="#D4AF37" font-size="24" font-family="Segoe UI, Arial, sans-serif" font-weight="700">Regulus</text>
  <text x="58" y="52" fill="#1E3A5F" font-size="13" font-family="Segoe UI, Arial, sans-serif" font-weight="600">TEMIZLIK &amp; INSAAT</text>
</svg>
